<?xml version="1.0" standalone="no"?>
<!DOCTYPE svg PUBLIC "-//W3C//DTD SVG 20010904//EN"
 "http://www.w3.org/TR/2001/REC-SVG-20010904/DTD/svg10.dtd">
<svg version="1.0" xmlns="http://www.w3.org/2000/svg"
 width="100pt" height="100pt" viewBox="0 0 2135.000000 2137.000000"
 preserveAspectRatio="xMidYMid meet">
 <defs>

      <radialGradient id="RadialGradient" cx="0.5" cy="0.8" r="0.5">
        <stop offset="0%" stop-color="white"/>
        <stop offset="100%" stop-color="red"/>
      </radialGradient>
  </defs>
<g transform="translate(0.000000,2137.000000) scale(0.100000,-0.100000)"
fill="url(#RadialGradient)" stroke="none">
<path d="M10216 20349 c-1297 -52 -2473 -351 -3616 -920 -247 -123 -344 -176
-745 -411 -328 -192 -446 -267 -660 -417 -989 -691 -1891 -1609 -2541 -2586
-126 -188 -443 -704 -539 -875 -545 -972 -919 -2139 -1044 -3255 -100 -887
-85 -1816 44 -2696 86 -584 148 -854 370 -1599 96 -323 175 -592 175 -598 0
-16 339 -666 650 -1247 324 -607 304 -570 403 -720 218 -328 511 -669 933
-1085 511 -503 931 -854 1389 -1160 290 -193 887 -576 940 -602 17 -8 77 -32
135 -53 58 -22 229 -106 382 -188 153 -82 282 -146 287 -143 5 3 72 -23 148
-58 347 -158 774 -323 1060 -410 271 -82 362 -103 908 -205 l320 -60 1100 -26
c1389 -33 1417 -33 1590 -12 695 86 1176 194 1707 381 297 105 886 335 1113
435 602 266 1336 712 1940 1180 926 718 1747 1633 2383 2656 472 757 711 1279
917 2000 107 375 106 364 245 1523 147 1223 150 1255 131 1782 -29 817 -124
1482 -333 2320 -34 137 -85 280 -298 835 -227 590 -269 692 -355 855 -380 719
-872 1423 -1434 2050 -271 303 -372 398 -1044 989 l-678 596 -322 211 c-277
181 -383 244 -757 444 -239 128 -493 258 -565 290 -727 321 -1579 564 -2380
679 -347 50 -458 59 -1030 91 -369 20 -598 23 -929 9z m1356 -906 c241 -53
436 -98 435 -99 -3 -3 -1000 -214 -1012 -214 -33 -1 63 -27 407 -111 214 -51
385 -96 380 -100 -6 -6 -843 -395 -1002 -466 -39 -18 -50 -27 -40 -33 8 -4
225 -63 482 -131 257 -68 464 -127 460 -131 -4 -4 -176 -100 -382 -214 -206
-113 -381 -209 -388 -213 -8 -4 144 -56 355 -121 202 -62 377 -116 388 -120
16 -6 -65 -64 -413 -294 -238 -157 -442 -286 -453 -286 -22 0 -872 150 -877
155 -3 3 191 132 800 533 98 64 178 120 178 123 0 3 -210 52 -467 108 -258 57
-478 105 -491 108 -13 3 -20 9 -15 13 4 5 184 111 398 236 426 248 400 232
394 238 -2 2 -240 47 -529 101 -289 53 -526 98 -528 99 -1 2 72 38 164 80 285
132 699 286 979 366 147 41 196 59 166 60 -14 0 -950 149 -964 153 -9 3 1091
255 1118 256 11 1 217 -43 457 -96z m-2114 -130 c265 -15 482 -31 482 -34 0
-4 -15 -11 -32 -14 -82 -18 -524 -171 -715 -248 -278 -113 -705 -316 -663
-316 66 -1 1077 -76 1083 -81 4 -4 -198 -125 -450 -270 l-458 -263 -330 14
c-181 8 -453 13 -604 12 l-274 -1 84 49 c46 26 274 158 506 291 232 134 423
246 423 249 0 11 -599 22 -799 15 l-186 -6 40 21 c22 11 333 152 690 314 420
189 662 294 685 295 19 0 252 -12 518 -27z m3650 -319 c276 -103 501 -189 499
-190 -2 -2 -199 -56 -437 -119 -239 -64 -436 -118 -438 -120 -3 -2 136 -74
308 -160 172 -86 309 -160 304 -164 -13 -11 -907 -351 -924 -351 -15 0 -690
259 -703 270 -4 4 214 93 485 200 271 106 497 196 501 200 5 4 -78 42 -185 83
-106 42 -307 121 -446 175 -139 55 -254 101 -257 104 -4 4 758 257 780 258 6
0 236 -84 513 -186z m-5648 -308 c0 -2 -234 -155 -520 -341 l-520 -337 -287
-43 c-159 -24 -362 -59 -452 -79 -90 -19 -159 -31 -155 -27 5 5 161 131 347
281 229 184 370 290 434 326 l95 54 507 84 c491 81 551 90 551 82z m7170 -387
c157 -89 361 -204 453 -256 92 -52 167 -97 165 -98 -5 -5 -998 -195 -1018
-195 -17 0 -819 458 -847 484 -10 9 103 38 460 118 259 59 479 107 487 107 8
1 143 -72 300 -160z m-7170 -203 c0 -2 -243 -203 -540 -446 l-540 -442 -333
-8 c-489 -13 -547 -13 -547 4 0 16 914 796 933 797 7 0 235 22 507 48 272 27
501 49 508 50 6 0 12 -1 12 -3z m1830 -82 c316 -36 581 -68 589 -70 8 -2 -216
-177 -499 -389 -477 -358 -516 -385 -554 -385 -23 -1 -314 12 -649 27 -486 22
-605 30 -595 40 28 27 1114 843 1123 843 6 0 269 -29 585 -66z m3591 -357
c250 -122 455 -227 457 -232 2 -6 -147 -88 -330 -183 -245 -127 -340 -171
-358 -168 -33 7 -951 401 -953 410 -2 7 710 396 724 396 4 0 211 -100 460
-223z m1568 -69 c124 -84 317 -214 428 -288 l201 -137 -345 -158 c-280 -127
-351 -156 -369 -149 -12 5 -243 135 -513 289 l-492 280 103 48 c129 60 231
103 378 157 110 40 339 108 369 109 8 1 116 -67 240 -151z m2006 -629 c248
-232 451 -424 453 -428 2 -7 -884 -122 -934 -121 -13 0 -183 140 -450 370
-236 204 -430 374 -432 378 -2 7 863 219 898 221 8 0 218 -189 465 -420z
m-9228 -22 c-166 -156 -315 -299 -331 -318 -16 -19 -44 -51 -63 -73 l-35 -38
-531 -29 c-293 -15 -547 -28 -565 -29 l-33 0 40 58 c22 31 183 200 358 374
l318 318 435 8 c239 5 497 10 572 10 l138 2 -303 -283z m2141 174 c276 -27
505 -51 508 -53 3 -3 -131 -120 -298 -259 -166 -140 -329 -276 -361 -303 l-58
-48 -512 38 c-282 20 -515 40 -520 44 -5 4 726 631 736 630 1 0 228 -22 505
-49z m3822 -348 c278 -157 509 -289 513 -293 4 -4 -50 -48 -120 -98 -153 -109
-281 -210 -415 -329 -55 -48 -103 -89 -108 -91 -5 -2 -263 131 -574 294 l-565
298 32 22 c18 12 183 128 367 258 206 145 341 234 350 230 8 -3 242 -134 520
-291z m-1868 -24 c545 -171 590 -187 586 -200 -6 -17 -582 -529 -595 -529 -29
0 -1184 293 -1181 300 5 11 662 590 671 590 4 0 238 -72 519 -161z m3298 -85
c129 -103 321 -255 427 -339 l192 -152 -336 -157 c-250 -118 -340 -156 -353
-150 -10 5 -201 144 -424 309 -379 279 -404 300 -383 311 12 7 159 91 327 188
168 97 307 176 310 176 3 0 111 -84 240 -186z m-6721 -331 c-107 -109 -295
-300 -417 -425 l-223 -228 -487 -10 c-268 -5 -540 -10 -604 -10 l-118 0 376
425 376 425 86 1 c48 1 209 5 357 8 149 4 400 8 560 9 l289 2 -195 -197z
m1741 47 c234 -34 434 -64 445 -68 17 -6 -18 -44 -239 -257 -143 -137 -320
-319 -394 -404 -128 -145 -137 -153 -166 -148 -17 2 -241 33 -498 68 -258 35
-468 67 -468 72 0 4 100 112 223 239 275 286 603 572 646 564 14 -3 217 -33
451 -66z m6753 -394 c219 -220 416 -422 437 -447 l39 -46 -313 -117 -314 -118
-88 94 c-49 51 -123 128 -164 172 -41 43 -222 204 -402 358 -181 154 -328 282
-328 286 0 4 156 59 348 123 269 90 351 114 367 107 11 -6 199 -191 418 -412z
m-4415 -261 c292 -126 531 -232 531 -235 0 -3 -91 -88 -201 -190 -111 -102
-277 -260 -369 -352 l-168 -166 -218 85 c-120 47 -373 139 -563 204 -190 65
-363 124 -384 132 l-39 13 377 397 377 396 62 -27 c35 -15 302 -130 595 -257z
m1866 -325 c4 -5 -103 -97 -238 -205 l-246 -197 -416 248 -415 247 23 22 c13
12 132 115 265 228 l243 206 387 -271 c214 -149 392 -274 397 -278z m1195 -10
c244 -234 464 -440 488 -459 23 -18 43 -35 43 -37 0 -2 -151 -119 -336 -260
l-336 -257 -226 224 c-125 124 -357 352 -515 508 -159 156 -286 285 -284 288
3 2 157 104 343 227 322 212 340 222 359 207 10 -9 219 -207 464 -441z m-7255
260 c275 -11 500 -21 502 -23 1 -1 -129 -164 -290 -362 l-292 -360 -527 -3
-528 -2 118 147 c64 82 202 255 306 386 104 130 194 237 200 237 7 0 237 -9
511 -20z m2161 -301 c325 -73 593 -135 597 -138 3 -3 -33 -50 -81 -103 -49
-53 -175 -214 -281 -357 -106 -144 -196 -263 -200 -266 -7 -4 -1218 283 -1228
291 -2 1 125 163 283 359 208 257 292 354 304 351 9 -3 282 -64 606 -137z
m-1732 -518 c280 -32 510 -60 512 -62 2 -2 -107 -158 -241 -347 -161 -225
-251 -342 -262 -342 -66 2 -987 117 -986 124 1 7 463 686 467 686 1 0 231 -27
510 -59z m4394 -543 c-1 -4 -63 -78 -137 -165 -74 -87 -215 -254 -313 -371
-98 -117 -181 -211 -185 -209 -267 148 -829 462 -835 467 -5 5 138 177 317
383 l326 375 415 -236 c228 -130 414 -240 412 -244z m-2019 -63 c287 -115 522
-212 522 -215 0 -3 -80 -113 -178 -245 -97 -132 -221 -300 -274 -372 l-98
-132 -72 40 c-278 153 -594 295 -868 389 -69 24 -127 45 -128 46 -2 1 107 167
243 368 l246 365 43 -17 c23 -9 277 -111 564 -227z"/>
</g>
</svg>
